<svg width="48" height="48" viewBox="0 0 48 48" fill="none" xmlns="http://www.w3.org/2000/svg">
<path d="M41.2575 31.9978C41.1019 31.8103 40.9491 31.6228 40.7991 31.4419C38.7366 28.9472 37.4888 27.4416 37.4888 20.3794C37.4888 16.7231 36.6141 13.7231 34.89 11.4731C33.6188 9.81094 31.9003 8.55 29.6353 7.61812C29.6062 7.60191 29.5802 7.58064 29.5585 7.55531C28.7438 4.82719 26.5144 3 24 3C21.4857 3 19.2572 4.82719 18.4425 7.5525C18.4208 7.57694 18.3952 7.59754 18.3666 7.61344C13.081 9.78937 10.5122 13.9641 10.5122 20.3766C10.5122 27.4416 9.26628 28.9472 7.20191 31.4391C7.05191 31.62 6.8991 31.8037 6.74347 31.995C6.34147 32.4798 6.08677 33.0696 6.00952 33.6947C5.93226 34.3197 6.03568 34.9538 6.30753 35.5219C6.88597 36.7406 8.11878 37.4972 9.52597 37.4972H38.4844C39.885 37.4972 41.1094 36.7416 41.6897 35.5284C41.9627 34.9602 42.0672 34.3256 41.9906 33.6998C41.914 33.0741 41.6596 32.4834 41.2575 31.9978ZM24 45C25.3548 44.9989 26.6839 44.6312 27.8466 43.9358C29.0092 43.2404 29.962 42.2433 30.6038 41.0503C30.634 40.9931 30.649 40.9291 30.6471 40.8645C30.6453 40.7998 30.6268 40.7367 30.5934 40.6813C30.56 40.626 30.5128 40.5802 30.4565 40.5484C30.4002 40.5166 30.3366 40.4999 30.2719 40.5H17.73C17.6653 40.4998 17.6016 40.5163 17.5451 40.548C17.4886 40.5797 17.4413 40.6255 17.4078 40.6809C17.3743 40.7364 17.3557 40.7995 17.3539 40.8642C17.352 40.929 17.3669 40.9931 17.3972 41.0503C18.039 42.2432 18.9916 43.2402 20.154 43.9356C21.3165 44.6309 22.6455 44.9987 24 45Z" fill="#F5F5F5"/>
</svg>
