<svg xmlns="http://www.w3.org/2000/svg" height="40px" viewBox="0 -960 960 960" width="40px" fill="#FFFFFF"><path d="M480.24-48.48q-89.5 0-168.22-33.95-78.72-33.94-136.94-92.35T82.71-311.89Q48.56-390.6 48.56-480.1q0-89.49 34.01-168.21 34-78.72 92.42-136.9 58.42-58.18 137.11-92.32 78.68-34.15 168.14-34.15 89.34 0 167.68 33.59 78.35 33.6 136.77 92.1 58.42 58.5 92.66 136.68 34.25 78.18 35.32 167.61-18.65-12.5-42.52-20.29-23.87-7.79-47.4-8.9-8.74-97.17-66.45-175.17-57.71-78-148.05-114.44v17.12q0 35.95-24.26 61.46-24.26 25.52-60.55 25.52h-86.07v87.31q0 17.56-13 28.8-13 11.23-30.59 11.23h-85.5v87.82l356.31.86q-48.5 31.57-75.55 81.43-27.05 49.87-27.05 106.47 0 71.67 29.11 113.29 29.11 41.62 75.08 88.81-43.98 21.25-90.65 31.58-46.67 10.32-95.29 10.32Zm-42.86-90.59v-83.47q-36.01 0-60.25-25.34-24.24-25.34-24.24-61.44v-43.82L146.64-559.39q-4.33 19.17-6.5 39.19-2.16 20.01-2.16 39.86 0 130.39 85.12 228.52 85.12 98.13 214.28 112.75Zm393.78-106.91q17.5-17.5 17.5-42.5 0-24.84-17-42.42-17-17.58-42-17.58-25.76 0-43.38 17.58t-17.62 42.5q0 24.92 17.5 42.42t42.5 17.5q25 0 42.5-17.5Zm-42.41 197.5q-3.09 0-16.09-11l-4-7q-22-38-55.5-67.5t-57.5-66.5q-13.76-20-20.38-43.5-6.62-23.5-6.62-48.5 0-65.6 47.05-110.8t113.12-45.2q66.07 0 112.95 45.2 46.88 45.2 46.88 110.91 0 24.89-6.5 48.39t-20.5 43.5q-24 37-57.5 66.5t-55.5 67.5l-4 7q-2 5-6.38 8t-9.53 3Z"/></svg>