<svg width="34" height="34" viewBox="0 0 34 34" fill="none" xmlns="http://www.w3.org/2000/svg">
<path d="M21.444 19.3688H20.351L19.9637 18.9952C21.3664 17.3683 22.1374 15.2912 22.1357 13.1431C22.1357 11.3645 21.6083 9.62584 20.6202 8.14701C19.6321 6.66817 18.2276 5.51556 16.5844 4.83492C14.9412 4.15429 13.1331 3.9762 11.3887 4.32319C9.64428 4.67017 8.04193 5.52664 6.78429 6.78429C5.52664 8.04193 4.67017 9.64428 4.32319 11.3887C3.9762 13.1331 4.15429 14.9412 4.83492 16.5844C5.51556 18.2276 6.66817 19.6321 8.14701 20.6202C9.62584 21.6083 11.3645 22.1357 13.1431 22.1357C15.3705 22.1357 17.418 21.3195 18.9952 19.9637L19.3688 20.351V21.444L26.2862 28.3476L28.3476 26.2862L21.444 19.3688ZM13.1431 19.3688C9.69818 19.3688 6.91737 16.588 6.91737 13.1431C6.91737 9.69818 9.69818 6.91737 13.1431 6.91737C16.588 6.91737 19.3688 9.69818 19.3688 13.1431C19.3688 16.588 16.588 19.3688 13.1431 19.3688Z" fill="#264A7F"/>
</svg>
