<svg xmlns="http://www.w3.org/2000/svg" height="40px" viewBox="0 -960 960 960" width="40px" fill="#FFFFFF"><path d="M480-56.42Q305.44-200.99 221.1-322.17q-84.35-121.19-84.35-232.48 0-151.88 101.75-250.82 101.74-98.94 241.54-98.94 15.58 0 30.6 1.67 15.02 1.67 30.03 4.05v91.13q-14.4-3.33-29.61-5.38-15.2-2.05-31.11-2.05-106.44 0-180.19 74.54-73.75 74.53-73.75 185.8 0 78.35 64.39 172.44 64.38 94.08 189.6 207.78Q600.85-282.92 664.22-373.1q63.38-90.18 69.35-165.75 0-4.66-.74-9.25-.75-4.59-.59-9.02h90.17q0 4.51.33 9.02t.33 9.25q-5.97 107.15-90.68 224.99Q647.68-196.02 480-56.42Zm56.98-446.68q23.66-23.58 23.66-56.9t-23.61-56.98q-23.61-23.66-56.98-23.66t-56.95 23.61q-23.58 23.61-23.58 56.98t23.58 56.95q23.58 23.58 56.9 23.58t56.98-23.58ZM480-560Zm253.77-63.78h86.31v-126.43h126.19v-86.31H820.08v-126.43h-86.31v126.43H607.34v86.31h126.43v126.43Z"/></svg>