<svg width="20" height="20" viewBox="0 0 20 20" fill="none" xmlns="http://www.w3.org/2000/svg">
<g clip-path="url(#clip0_468_239)">
<path d="M11.8417 19.2C11.6198 19.2003 11.402 19.1411 11.212 19.0288L7.12872 16.6288C6.94724 16.5223 6.79702 16.3715 6.69268 16.1912C6.58835 16.0109 6.53346 15.8072 6.53337 15.6V11.468L1.66113 5.628C1.11253 5.01153 0.812297 4.22022 0.816698 3.4024C0.817779 2.50035 1.18406 1.63555 1.83519 0.997709C2.48633 0.359865 3.36914 0.00105862 4.28998 0L15.3101 0C15.9796 0.000238753 16.6348 0.189984 17.1968 0.546406C17.7588 0.902828 18.2037 1.41074 18.478 2.00904C18.7523 2.60733 18.8443 3.27052 18.7428 3.9188C18.6414 4.56708 18.3509 5.17284 17.9063 5.6632L13.0667 11.5056V18C13.0667 18.3183 12.9376 18.6235 12.7079 18.8485C12.4782 19.0736 12.1666 19.2 11.8417 19.2V19.2ZM8.98337 14.92L10.6167 15.88V11.08C10.6165 10.8044 10.7131 10.5372 10.8903 10.3232L16.0394 4.1096C16.2247 3.91852 16.3297 3.66598 16.3334 3.4024C16.3329 3.13668 16.225 2.88196 16.0332 2.69406C15.8414 2.50617 15.5813 2.40042 15.3101 2.4H4.28998C4.09275 2.40019 3.89976 2.45617 3.73422 2.56122C3.56868 2.66626 3.43763 2.8159 3.35681 2.99214C3.27599 3.16839 3.24885 3.36375 3.27864 3.55474C3.30844 3.74574 3.3939 3.92424 3.52476 4.0688L8.70733 10.2808C8.88594 10.4951 8.98345 10.7633 8.98337 11.04V14.92Z" fill="#264A7F"/>
</g>
<defs>
<clipPath id="clip0_468_239">
<rect width="19.6" height="19.2" fill="white"/>
</clipPath>
</defs>
</svg>
