<svg xmlns="http://www.w3.org/2000/svg" height="40px" viewBox="0 -960 960 960" width="40px" fill="#142B4D"><path d="M796.58-99.67 534.83-361.45q-30.38 24.2-72.04 37.76-41.67 13.55-86.91 13.55-115.99 0-195.81-79.83-79.81-79.82-79.81-194.51 0-114.68 79.83-194.46t195.18-79.78q114.01 0 193.79 79.82 79.78 79.81 79.78 194.47 0 44.81-13.01 84.76-13 39.95-38.87 74.06l263.45 262.2-63.83 63.74ZM375.12-399.4q77.47 0 130.96-53.73 53.5-53.73 53.5-131.2t-53.5-131.3q-53.49-53.83-130.96-53.83-78.64 0-132.12 53.83-53.48 53.83-53.48 131.3 0 77.47 53.48 131.2 53.48 53.73 132.12 53.73Z"/></svg>