<svg xmlns="http://www.w3.org/2000/svg" height="40px" viewBox="0 -960 960 960" width="40px" fill="#142B4D"><path d="M708.67-477.33 578-608.67l59-58.66 71.67 70.66 156.66-155.66L925-692.67 708.67-477.33Zm-475.67-59Q185.33-584 185.33-656.67q0-72.66 47.67-120.33t120.33-47.67q72.67 0 120.34 47.67 47.66 47.67 47.66 120.33 0 72.67-47.66 120.34-47.67 47.66-120.34 47.66-72.66 0-120.33-47.66ZM13.33-119.67V-240q0-39.74 18.96-70.98Q51.25-342.22 85.33-358q73.34-34.67 137.61-49.67 64.27-15 130.33-15 66.06 0 130.06 15T620.67-358q34.08 16.44 53.37 47.35T693.33-240v120.33h-680Zm84-84h512V-240q0-14.33-6.38-25.78-6.38-11.45-17.28-16.22-66.34-31-120.5-43.83-54.17-12.84-111.84-12.84-57.66 0-112.16 12.84Q186.67-313 121-282q-11.2 4.77-17.43 16.22-6.24 11.45-6.24 25.78v36.33Zm316-393q24-24 24-60t-24-60q-24-24-60-24t-60 24q-24 24-24 60t24 60q24 24 60 24t60-24Zm-60 325Zm0-385Z"/></svg>